<svg height="32" viewBox="0 0 32 32" width="32" xmlns="http://www.w3.org/2000/svg"><path d="m30 14h-2a10.0113 10.0113 0 0 0 -10-10v-2a12.0137 12.0137 0 0 1 12 12z"/><path d="m26 14h-2a6.0067 6.0067 0 0 0 -6-6v-2a8.0092 8.0092 0 0 1 8 8z"/><path d="m16 28v-3.04a9.9124 9.9124 0 0 0 7.3179-2.208 1.8482 1.8482 0 0 0 .6777-1.3344 1.8 1.8 0 0 0 -.5239-1.36l-5.0576-5.0576 2.5859-2.5859-1.4141-1.4141-2.5859 2.5859-5.0581-5.0586a1.8145 1.8145 0 0 0 -1.36-.5229 1.845 1.845 0 0 0 -1.3339.6782 9.9566 9.9566 0 0 0 -.5127 11.95l-2.456 7.3674h-4.2793v2h28v-2zm-5.32-17.9062 11.2258 11.2262a8.0011 8.0011 0 0 1 -11.2258-11.2262zm3.32 17.9062h-5.6125l1.8757-5.627a9.9894 9.9894 0 0 0 3.7368 2.1705z"/><path d="m0 0h32v32h-32z" fill="none"/></svg>