<svg height="100" width="100" xmlns="http://www.w3.org/2000/svg"><path d="m32.102578 24.707424c-2.314993 1.336562-3.102349 4.275013-1.765787 6.590006l3.170899 5.492157-3.614097.740201-29.4448634 17 12.5000004 21.650635 29.444863-17 2.448081-2.7598 3.170898 5.492158c1.336562 2.314993 4.275013 3.102348 6.590006 1.765786l13.294843-7.675781c2.314993-1.336562 3.102348-4.275012 1.765786-6.590005l-3.170898-5.492158 3.614097-.7402 29.444864-17-12.5-21.6506349-29.444864 16.9999999-2.448081 2.759799-3.170899-5.492157c-1.336562-2.314993-4.275012-3.102349-6.590005-1.765787zm-24.8237213 31.652491 25.9807613-15 7.5 12.990381-25.980761 15zm51.9615233-30 25.980763-15 7.5 12.990381-25.980763 15zm10.998897 38.554554c-1.070172 4.014391-5.120546 6.36882-9.138534 5.31222l-1.271636 4.836523c6.625557 1.742303 13.477717-2.241469 15.242406-8.861095zm-11.728139 14.971422-1.269945 4.835548c12.002812 3.156692 24.36217-3.972971 27.546265-15.917376l-4.831258-1.285953c-2.485468 9.323675-12.03439 14.842752-21.445063 12.367779zm-2.57698 9.665446-1.271637 4.836524c17.356184 4.56461 35.192616-5.727231 39.794097-22.988666l-4.830543-1.288619c-3.902856 14.640698-18.927873 23.323652-33.691917 19.440761z" fill="#000080"/></svg>